<svg width="835" height="834" viewBox="0 0 835 834" fill="none" xmlns="http://www.w3.org/2000/svg">
<path fill-rule="evenodd" clip-rule="evenodd" d="M615.029 417C615.029 533.532 526.367 628 416.997 628C307.627 628 218.965 533.532 218.965 417C218.965 300.468 307.627 206 416.997 206C451.321 206 483.606 215.305 511.751 231.676C496.705 239.298 486.304 255.642 486.304 274.575C486.304 300.795 506.253 322.05 530.861 322.05C551.13 322.05 568.239 307.63 573.642 287.893C599.587 323.577 615.029 368.367 615.029 417ZM486.301 413.835C499.973 413.835 511.055 402.026 511.055 387.46C511.055 372.893 499.973 361.085 486.301 361.085C472.63 361.085 461.548 372.893 461.548 387.46C461.548 402.026 472.63 413.835 486.301 413.835Z" fill="#161616"/>
<path fill-rule="evenodd" clip-rule="evenodd" d="M820.558 414.943C820.781 416.118 820.933 417.343 821.001 418.582C820.933 419.822 820.781 421.047 820.558 422.222C818.158 434.872 802.319 469.782 711.091 538.185C604.069 618.43 577.738 621.82 573.444 621.665C628.443 573.591 663.746 500.525 664.344 418.582C663.746 336.64 628.443 263.573 573.443 215.499C577.737 215.344 604.066 218.733 711.09 298.98C802.319 367.383 818.158 402.293 820.558 414.943Z" fill="#2F3B1C"/>
<path fill-rule="evenodd" clip-rule="evenodd" d="M664.344 418.582C663.746 336.64 628.443 263.573 573.443 215.499C577.737 215.344 604.066 218.733 711.091 298.98C802.319 367.383 818.158 402.293 820.558 414.943C820.781 416.118 820.933 417.343 821.001 418.582C821.001 418.582 821.001 418.582 821.001 418.582" fill="#2F3B1C"/>
<path fill-rule="evenodd" clip-rule="evenodd" d="M13 418.583L13.0099 418.583C13.0781 417.343 13.2306 416.118 13.4535 414.943C15.8536 402.293 31.6923 367.383 122.921 298.98C229.938 218.739 256.271 215.345 260.567 215.499C205.567 263.573 170.265 336.64 169.667 418.583L169.657 418.583C170.255 500.525 205.558 573.592 260.557 621.665C256.263 621.82 229.932 618.43 122.911 538.185C31.6824 469.782 15.8436 434.872 13.4435 422.222C13.2206 421.047 13.0682 419.822 13 418.583Z" fill="#2F3B1C"/>
<path fill-rule="evenodd" clip-rule="evenodd" d="M615.029 417C615.029 533.532 526.367 628 416.997 628C307.627 628 218.965 533.532 218.965 417C218.965 300.468 307.627 206 416.997 206C451.321 206 483.606 215.305 511.751 231.676C496.705 239.298 486.304 255.642 486.304 274.575C486.304 300.795 506.253 322.05 530.861 322.05C551.13 322.05 568.239 307.63 573.642 287.893C599.587 323.577 615.029 368.367 615.029 417ZM486.301 413.835C499.973 413.835 511.055 402.026 511.055 387.46C511.055 372.893 499.973 361.085 486.301 361.085C472.63 361.085 461.548 372.893 461.548 387.46C461.548 402.026 472.63 413.835 486.301 413.835Z" fill="#161616"/>
<path fill-rule="evenodd" clip-rule="evenodd" d="M821.001 418.582H664.344C663.746 336.64 628.443 263.573 573.443 215.499C577.737 215.344 604.066 218.733 711.091 298.98C802.319 367.383 818.158 402.293 820.558 414.943C820.781 416.118 820.933 417.343 821.001 418.582ZM820.558 422.222C820.781 421.047 820.933 419.822 821.001 418.582H664.344C663.746 500.525 628.444 573.592 573.444 621.665C577.738 621.82 604.069 618.43 711.091 538.185C802.319 469.782 818.158 434.872 820.558 422.222Z" fill="#2F3B1C"/>
<path fill-rule="evenodd" clip-rule="evenodd" d="M664.344 418.582C663.746 336.64 628.443 263.573 573.443 215.499C577.737 215.344 604.066 218.733 711.091 298.98C802.319 367.383 818.158 402.293 820.558 414.943C820.781 416.118 820.933 417.343 821.001 418.582C821.001 418.582 821.001 418.582 821.001 418.582" fill="#2F3B1C"/>
<path fill-rule="evenodd" clip-rule="evenodd" d="M13 418.583H13.0099C13.0781 417.343 13.2306 416.118 13.4535 414.943C15.8536 402.293 31.6923 367.383 122.921 298.98C229.938 218.739 256.271 215.345 260.567 215.499C205.567 263.573 170.265 336.64 169.667 418.583H169.657C170.255 500.525 205.558 573.592 260.557 621.665C256.263 621.82 229.932 618.43 122.911 538.185C31.6824 469.782 15.8436 434.872 13.4435 422.222C13.2206 421.047 13.0682 419.822 13 418.583Z" fill="#2F3B1C"/>
</svg>
